<?xml version="1.0" standalone="no"?>
<!DOCTYPE svg PUBLIC "-//W3C//DTD SVG 20010904//EN"
 "http://www.w3.org/TR/2001/REC-SVG-20010904/DTD/svg10.dtd">
<svg version="1.0" xmlns="http://www.w3.org/2000/svg"
 width="512.000000pt" height="513.000000pt" viewBox="0 0 512.000000 513.000000"
 preserveAspectRatio="xMidYMid meet">
<metadata>
Created by potrace 1.16, written by Peter Selinger 2001-2019
</metadata>
<g transform="translate(0.000000,513.000000) scale(0.100000,-0.100000)"
fill="#000000" stroke="none">
<path d="M2830 5114 c-466 -100 -809 -411 -933 -849 -55 -196 -67 -303 -67
-620 l0 -235 -248 0 c-297 0 -331 -7 -403 -79 -77 -77 -79 -88 -79 -567 0
-252 4 -432 11 -461 14 -65 55 -121 114 -158 l48 -30 278 -3 279 -3 2 -962 3
-962 22 -41 c25 -48 83 -101 129 -120 49 -20 969 -20 1018 0 46 19 104 72 129
120 l22 41 3 963 2 962 313 0 c191 0 327 4 351 11 48 13 123 82 147 134 17 37
19 76 19 505 l0 465 -30 53 c-37 64 -94 107 -161 121 -29 7 -173 11 -345 11
l-296 0 4 213 c2 116 7 219 12 228 17 38 52 43 366 49 288 5 307 6 345 27 42
22 78 58 111 108 18 28 19 55 22 460 2 237 0 444 -3 461 -8 46 -56 112 -105
145 l-43 29 -486 -1 c-376 0 -501 -4 -551 -15z m880 -594 l0 -310 -219 0
c-250 0 -341 -12 -438 -60 -106 -52 -172 -151 -193 -288 -7 -40 -10 -190 -8
-363 l3 -296 27 -35 c51 -67 56 -68 447 -68 l351 0 0 -340 0 -339 -358 -3
-359 -3 -36 -25 c-21 -14 -46 -43 -57 -66 -20 -39 -20 -63 -20 -1022 l0 -982
-355 0 -355 0 0 979 c0 667 -3 989 -11 1008 -15 42 -68 92 -109 103 -19 5
-164 10 -322 10 l-288 0 0 340 0 340 301 0 c336 0 346 2 397 68 l27 35 6 386
c6 412 11 456 65 619 60 180 164 328 302 431 131 96 287 158 472 185 14 2 184
4 378 5 l352 1 0 -310z"/>
</g>
</svg>
