
<svg version="1.0" xmlns="http://www.w3.org/2000/svg"
 width="521.000000pt" height="521.000000pt" viewBox="0 0 521.000000 521.000000"
 preserveAspectRatio="xMidYMid meet">
<metadata>
Created by potrace 1.16, written by Peter Selinger 2001-2019
</metadata>
<g transform="translate(0.000000,521.000000) scale(0.100000,-0.100000)"
fill="#000000" stroke="none">
<path d="M832 5113 c-42 -21 -63 -42 -96 -93 -51 -77 -72 -137 -86 -242 -12
-98 45 -4284 60 -4404 6 -45 18 -104 28 -133 26 -76 94 -155 161 -188 51 -25
65 -28 166 -26 90 1 122 6 178 26 72 26 212 106 254 145 14 13 179 129 367
257 188 128 353 244 368 257 50 45 73 62 386 275 174 119 324 223 332 232 8 9
98 74 200 145 435 300 516 357 540 379 14 13 152 110 307 216 155 105 301 208
325 227 51 44 131 156 169 241 88 192 45 425 -104 563 -35 33 -83 75 -108 93
-74 56 -583 403 -602 410 -9 3 -80 49 -156 102 -76 52 -141 95 -144 95 -3 0
-99 65 -215 143 -115 79 -217 147 -226 150 -9 4 -150 98 -314 210 -279 191
-341 232 -431 282 -20 12 -188 125 -374 253 -186 128 -341 232 -344 232 -3 0
-42 23 -85 51 -44 28 -114 67 -156 87 -75 36 -80 37 -212 40 -131 3 -137 2
-188 -25z"/>
</g>
</svg>
