<?xml version="1.0" standalone="no"?>
<!DOCTYPE svg PUBLIC "-//W3C//DTD SVG 20010904//EN"
 "http://www.w3.org/TR/2001/REC-SVG-20010904/DTD/svg10.dtd">
<svg version="1.0" xmlns="http://www.w3.org/2000/svg"
 width="512.000000pt" height="512.000000pt" viewBox="0 0 512.000000 512.000000"
 preserveAspectRatio="xMidYMid meet">
<metadata>
Created by potrace 1.16, written by Peter Selinger 2001-2019
</metadata>
<g transform="translate(0.000000,512.000000) scale(0.100000,-0.100000)"
fill="#000000" stroke="none">
<path d="M3015 3950 l-350 -350 270 -270 270 -270 -1603 0 -1602 0 0 -500 0
-500 1602 0 1603 0 -270 -270 -270 -270 358 -358 357 -357 870 870 c478 478
870 874 870 880 0 13 -1732 1745 -1745 1745 -6 0 -168 -157 -360 -350z m1020
-740 l650 -650 -653 -652 -652 -653 -132 133 -133 132 418 418 c229 229 417
420 417 425 0 4 -821 7 -1825 7 l-1825 0 0 190 0 190 1827 0 1828 0 -423 423
-422 422 132 133 c73 72 135 132 138 132 3 0 298 -293 655 -650z"/>
</g>
</svg>
