<?xml version="1.0" standalone="no"?>
<!DOCTYPE svg PUBLIC "-//W3C//DTD SVG 20010904//EN"
 "http://www.w3.org/TR/2001/REC-SVG-20010904/DTD/svg10.dtd">
<svg version="1.0" xmlns="http://www.w3.org/2000/svg"
 width="512.000000pt" height="512.000000pt" viewBox="0 0 512.000000 512.000000"
 preserveAspectRatio="xMidYMid meet">
<metadata>
Created by potrace 1.16, written by Peter Selinger 2001-2019
</metadata>
<g transform="translate(0.000000,512.000000) scale(0.100000,-0.100000)"
fill="#000000" stroke="none">
<path d="M2226 5104 c-456 -59 -892 -245 -1271 -542 -91 -72 -326 -307 -400
-401 -301 -382 -483 -817 -541 -1291 -24 -203 -16 -554 19 -750 162 -911 794
-1664 1657 -1973 274 -99 492 -137 806 -144 384 -9 664 39 998 169 331 130
597 302 855 553 399 388 646 862 743 1420 31 179 33 627 4 803 -21 127 -37
156 -94 172 -51 14 -2363 14 -2414 0 -20 -6 -46 -22 -58 -37 -20 -25 -20 -37
-20 -545 0 -563 0 -561 55 -586 19 -9 179 -12 610 -12 322 0 585 -2 585 -5 0
-15 -94 -158 -151 -228 -275 -342 -713 -531 -1151 -496 -502 40 -950 362
-1145 823 -72 169 -104 336 -104 536 1 491 269 939 706 1180 402 221 933 215
1319 -16 75 -45 121 -49 168 -14 59 43 752 612 790 647 73 71 59 128 -55 217
-365 284 -789 459 -1264 521 -143 19 -496 18 -647 -1z m611 -209 c294 -39 544
-115 790 -241 121 -62 325 -193 321 -205 -2 -4 -142 -122 -313 -262 l-310
-253 -90 42 c-502 237 -1083 194 -1555 -117 -189 -124 -404 -365 -512 -575
-20 -39 -38 -62 -46 -59 -22 8 -602 487 -602 497 0 5 28 53 62 106 396 613
1033 1000 1768 1075 100 11 380 6 487 -8z m-2094 -1644 c169 -139 307 -253
307 -255 0 -1 -9 -42 -20 -92 -49 -221 -48 -475 1 -689 12 -49 23 -101 25
-115 3 -22 -31 -54 -301 -273 -167 -136 -310 -250 -317 -252 -14 -6 -37 44
-94 202 -139 384 -172 849 -88 1252 43 207 145 501 167 483 7 -5 150 -122 320
-261z m4151 -388 c14 -106 18 -412 7 -528 -46 -458 -219 -880 -512 -1250 -72
-92 -271 -295 -288 -295 -7 0 -149 112 -316 249 l-304 249 55 42 c88 69 255
250 323 351 88 132 164 291 169 356 4 48 2 55 -26 83 l-30 30 -626 0 -626 0 0
380 0 380 1084 0 1083 0 7 -47z m-3698 -1078 c71 -126 159 -238 282 -356 358
-347 853 -498 1352 -413 105 18 286 74 384 118 l74 34 293 -240 c162 -132 304
-250 317 -262 l24 -23 -69 -45 c-283 -187 -594 -306 -948 -365 -155 -25 -534
-25 -690 0 -518 86 -957 308 -1315 666 -156 157 -370 437 -358 471 2 7 598
500 605 500 0 0 23 -38 49 -85z"/>
</g>
</svg>
