<?xml version="1.0" standalone="no"?>
<!DOCTYPE svg PUBLIC "-//W3C//DTD SVG 20010904//EN"
 "http://www.w3.org/TR/2001/REC-SVG-20010904/DTD/svg10.dtd">
<svg version="1.0" xmlns="http://www.w3.org/2000/svg"
 width="512.000000pt" height="512.000000pt" viewBox="0 0 512.000000 512.000000"
 preserveAspectRatio="xMidYMid meet">
<metadata>
Created by potrace 1.16, written by Peter Selinger 2001-2019
</metadata>
<g transform="translate(0.000000,512.000000) scale(0.100000,-0.100000)"
fill="#000000" stroke="none">
<path d="M3285 4640 c-216 -46 -392 -139 -544 -284 -157 -152 -253 -311 -309
-518 -26 -95 -45 -272 -36 -347 l6 -58 -103 14 c-57 8 -156 25 -219 39 -63 14
-130 28 -147 31 -98 17 -161 -94 -95 -167 22 -26 44 -35 128 -55 262 -62 560
-94 613 -66 11 6 28 26 37 43 14 27 14 40 3 112 -50 310 48 609 268 816 117
111 233 177 390 222 67 20 100 23 233 22 139 0 164 -3 243 -27 147 -45 236
-96 373 -213 68 -57 80 -64 119 -64 50 0 194 36 312 78 l82 29 -19 -27 c-29
-41 -134 -135 -200 -180 -69 -47 -80 -64 -80 -120 0 -46 30 -85 74 -96 24 -6
195 18 260 37 l30 9 -40 -41 c-21 -23 -83 -77 -137 -121 -54 -44 -102 -90
-106 -101 -5 -12 -11 -121 -14 -242 -9 -361 -68 -646 -202 -980 -342 -851
-1055 -1461 -1928 -1650 -238 -51 -323 -59 -622 -59 -300 0 -382 8 -613 60
-128 28 -375 107 -462 147 l-55 26 36 0 c55 1 252 37 359 66 202 55 443 168
632 297 100 69 136 102 144 135 14 56 -29 118 -87 126 -237 33 -335 61 -455
133 -113 67 -237 188 -307 300 l-25 41 116 11 c211 20 272 49 272 131 0 63
-26 85 -142 121 -181 56 -298 128 -413 252 -85 92 -118 139 -165 241 -38 80
-76 204 -66 214 2 3 26 -2 53 -10 60 -19 138 -34 224 -43 73 -7 115 7 143 48
19 27 20 75 3 104 -7 12 -47 49 -89 83 -280 221 -405 586 -318 927 11 42 22
79 25 82 2 3 57 -46 122 -108 125 -119 285 -252 386 -319 77 -52 124 -55 168
-12 23 24 29 38 29 73 0 52 -10 63 -146 165 -149 111 -295 244 -414 377 -92
104 -117 126 -147 132 -56 10 -94 -14 -131 -83 -143 -269 -168 -617 -65 -908
26 -73 106 -230 123 -240 6 -3 10 -10 10 -15 0 -5 -19 0 -42 10 -52 24 -70 25
-109 4 -50 -26 -61 -66 -49 -191 27 -291 128 -506 336 -711 l105 -103 -30 -10
c-62 -22 -77 -88 -40 -181 85 -220 238 -411 427 -534 66 -43 195 -107 247
-124 22 -7 44 -16 49 -20 21 -20 -274 -148 -445 -194 -196 -53 -247 -59 -533
-61 l-269 -2 -24 -27 c-27 -32 -31 -99 -8 -133 30 -42 312 -195 510 -275 396
-162 763 -226 1215 -215 375 10 661 63 987 182 128 47 394 179 508 251 335
212 656 529 877 865 322 489 508 1084 508 1624 l0 123 70 57 c103 85 286 278
363 385 58 80 67 99 67 136 0 54 -31 92 -80 100 -26 4 -59 -4 -125 -29 -49
-20 -91 -34 -93 -32 -2 1 17 34 41 71 56 86 127 251 127 294 0 43 -55 100 -98
100 -18 0 -89 -29 -169 -70 -128 -64 -330 -140 -414 -155 -32 -6 -41 -2 -94
43 -114 98 -268 176 -434 219 -134 36 -364 42 -496 13z"/>
<path d="M1399 3652 c-26 -23 -32 -36 -32 -68 0 -53 15 -78 57 -98 50 -23 81
-20 118 13 28 25 33 36 33 76 0 40 -5 51 -33 76 -44 40 -99 40 -143 1z"/>
<path d="M3675 2241 c-34 -15 -56 -47 -62 -90 -5 -36 -2 -44 30 -76 25 -25 44
-35 66 -35 66 0 111 44 111 109 0 63 -86 118 -145 92z"/>
<path d="M3462 1943 c-18 -10 -65 -54 -105 -98 -143 -159 -280 -275 -479 -405
-105 -68 -125 -95 -114 -153 9 -50 48 -82 99 -82 106 1 500 309 695 544 44 52
52 69 52 102 0 31 -7 47 -29 70 -16 16 -36 29 -44 29 -9 0 -21 2 -29 5 -7 3
-28 -3 -46 -12z"/>
</g>
</svg>
